<svg id="Layer_1" data-name="Layer 1" xmlns="http://www.w3.org/2000/svg" viewBox="0 0 2200.41 1613.45"><defs><style>.cls-1{fill:#fff;}</style></defs><path class="cls-1" d="M101.55,1287.25H76.37V1086.66H99.11l1.62,16.65h.82q19.49-11.36,34.31-16a98.85,98.85,0,0,1,29.84-4.67q17.06,0,29.44,5.49a46.07,46.07,0,0,1,19.69,16h.81a159.12,159.12,0,0,1,35.94-16.24,126.53,126.53,0,0,1,36.34-5.28q28.83,0,43.65,14.83t14.82,43.65v146.17H321.22V1143.92q0-19.89-10.56-29.24t-32.89-9.34a97.08,97.08,0,0,0-27,4.06,139.18,139.18,0,0,0-28.63,12.19,60.92,60.92,0,0,1,1.62,9.74q.41,4.88.41,9.75v146.17H199V1143.92q0-19.89-10.56-29.24t-33.3-9.34a78.16,78.16,0,0,0-23.95,4.06q-12.6,4.06-29.64,13.81Z"/><path class="cls-1" d="M538,1254.77v21.52q-11,5.68-30.65,9.75a196.18,196.18,0,0,1-39.59,4.06q-46.29,0-66.39-24.57t-20.1-80.19q0-54,20.51-78.37t66.38-24.37q41.82,0,60.1,19.49t18.27,63.75q0,6.92-.41,13.4t-1.62,15.43H406.89q.41,38.58,15,55.43T471.86,1267a190.44,190.44,0,0,0,35.33-3.45Q525.46,1260.05,538,1254.77Zm-14.61-92.17q-.42-30.86-13.4-44.06t-41.83-13.2q-33.29,0-47.3,15.43t-14,52.38H522.62q.39-2.43.6-5.07C523.36,1166.32,523.43,1164.5,523.43,1162.6Z"/><path class="cls-1" d="M718.33,1017.23H743.5v270H722l-2-19.08h-1.62a79.5,79.5,0,0,1-29,16.44q-16.86,5.49-39.59,5.49-41.41,0-59.49-24.57t-18.07-79q0-55.62,21.73-79.79t72.88-24.16A155.85,155.85,0,0,1,695,1085a105.78,105.78,0,0,1,23.35,6.9Zm-49.13,88.11q-41.41,0-56.64,17.87t-15.23,63.34q0,44.27,13.2,62.33T658.24,1267a113.68,113.68,0,0,0,32.28-4.47,92.51,92.51,0,0,0,27.81-13.4v-134.8a103.46,103.46,0,0,0-23.14-6.91A154,154,0,0,0,669.2,1105.34Z"/><path class="cls-1" d="M816.19,1045.25H788.57v-28h27.62Zm-1.22,242H789.79V1086.66H815Z"/><path class="cls-1" d="M906.33,1290.1q-30.87,0-45.28-14.62t-14.41-46.29q0-31.68,17.46-45.07t59.28-13.4q15,0,29.23,1.22t27.62,3.65v-21.11q0-26.81-12.19-38t-39.79-11.17a288.31,288.31,0,0,0-32.69,1.63,223.7,223.7,0,0,0-28.62,5.28v-22.34a257.54,257.54,0,0,1,32.69-5.68A356.76,356.76,0,0,1,936,1082.6q35.71,0,52.58,16.86t16.85,53v134.81H982.66l-1.22-19.89h-.81q-12.58,10.16-32.89,16.44A139.31,139.31,0,0,1,906.33,1290.1Zm19.89-98.67q-30.86,0-43.24,8.12t-12.39,28q0,21.12,10.15,30.46t32.89,9.34a128.81,128.81,0,0,0,36.75-5.48q18.48-5.49,29.85-13.61v-52q-13.41-2.44-26.6-3.66T926.22,1191.43Z"/><path class="cls-1" d="M1236,1213.35q0,39-21.92,56.44t-69.44,17.46h-99.48V1032.66h99.48q43,0,61.11,14.62t18.07,49.94q0,24-7.31,36.55t-26.8,18.27q23.15,4.07,34.72,19.29T1236,1213.35Zm-57.25-109.23q0-17.44-7.51-24.15t-26.6-6.7h-50.75v65.78h50.75q18.28,0,26.19-8.13T1178.78,1104.12Zm10.15,106q0-18.66-9.94-26t-34.32-7.31h-50.75V1245h50.75q24.38,0,34.32-7.71T1188.93,1210.1Z"/><path class="cls-1" d="M1323.74,1290.91q-33.71,0-50.35-16.85t-16.65-50.56V1086.66h47.1v130.75q0,15.43,8.12,22.34t26.4,6.9a113.66,113.66,0,0,0,23.14-2.44,129.17,129.17,0,0,0,21.93-6.49V1086.66h47.1v200.59h-43.45l-1.62-13.8h-1.22a183.64,183.64,0,0,1-31.87,13A101.93,101.93,0,0,1,1323.74,1290.91Z"/><path class="cls-1" d="M1571.83,1082.6q40.61,0,57.66,23.76t17,79q0,56-22.13,80.8t-72.88,24.77a389.69,389.69,0,0,1-48.53-2.84,255.76,255.76,0,0,1-40.4-8.13V1017.23h47.1v81.21a134,134,0,0,1,62.13-15.84Zm27.61,102.74q0-35.34-8.73-47.92t-35.93-12.59a110.68,110.68,0,0,0-23.76,2.64,99.46,99.46,0,0,0-21.32,7.11V1243.4a90.93,90.93,0,0,0,16.65,2.84q9.35.83,21.93.81,31.26,0,41.21-12.58T1599.44,1185.34Z"/><path class="cls-1" d="M1779.32,1082.6q40.59,0,57.65,23.76t17.06,79q0,56-22.13,80.8T1759,1290.91a389.52,389.52,0,0,1-48.52-2.84,255.76,255.76,0,0,1-40.4-8.13V1017.23h47.1v81.21a134,134,0,0,1,62.13-15.84Zm27.61,102.74q0-35.34-8.73-47.92t-35.94-12.59a110.66,110.66,0,0,0-23.75,2.64,99.27,99.27,0,0,0-21.32,7.11V1243.4a90.78,90.78,0,0,0,16.65,2.84q9.33.83,21.92.81,31.26,0,41.22-12.58T1806.93,1185.34Z"/><path class="cls-1" d="M1925.08,1017.23v270H1878v-270Z"/><path class="cls-1" d="M2115.51,1238.12v38.17q-10.16,6.09-31.87,10.35a234.15,234.15,0,0,1-45.28,4.27q-47.91,0-68.82-24.36t-20.91-80.4q0-54,21.92-78.78T2040,1082.6q45.87,0,65,19.09t19.08,65.37q0,8.54-.41,15.64t-1.62,19.69H1996.13q.4,25.18,11.17,35.33t38.37,10.15a261.16,261.16,0,0,0,37.77-2.85Q2102.92,1242.19,2115.51,1238.12ZM2040,1123.62q-24.78,0-34.31,9.74t-9.55,35.33H2081v-8.53q-.4-20.72-9.34-28.63T2040,1123.62Z"/><path class="cls-1" d="M883.2,86.61a129.12,129.12,0,0,0-120.42,82.58L552.27,713.86a129.07,129.07,0,1,0,240.78,93.06l210.51-544.67A129.14,129.14,0,0,0,883.2,86.61"/><path class="cls-1" d="M1192.25,86.61a129.11,129.11,0,0,0-120.42,82.58L861.31,713.86a129.07,129.07,0,1,0,240.78,93.06L1312.6,262.25A129.14,129.14,0,0,0,1192.25,86.61"/><path class="cls-1" d="M1404.56,117.63h-27a158.09,158.09,0,0,0-50.09,8.14c34,35,36.24,84.63,17.49,133.17,0,0-145.27,377.09-205.52,533.79-12.15,31.6,9.34,65.75,43.19,65.75h245v-.15c127.34-4.05,229.31-105.87,229.31-230.92,0-67.67-30-128.32-77.64-170.52-54.21,56-137.73,89.55-137.73,89.55s90.91-39.19,143.25-128.51a199.71,199.71,0,0,0,23.82-94.74c0-111.24-90.71-201.83-204-205.44v-.12"/><path class="cls-1" d="M396.84,1525.6H384.77l44.73-111.3h11.89L486,1525.6H473.7l-11.36-29.29h-54Zm38.34-101.18q-1.43,4.44-3.19,9.76t-5.86,16.51l-13.85,35.5h46.16l-13.85-35.5q-2.65-6.93-5.06-13.58C437.93,1432.68,436.49,1428.44,435.18,1424.42Z"/><path class="cls-1" d="M577,1525.6H546.66V1414.3H577q17.21,0,27.25,2.76t16.06,9q5.85,6.21,8.61,16.77t2.75,27.07q0,28.94-13,42.34T577,1525.6Zm34.61-91.24A25.65,25.65,0,0,0,599,1427q-8-2.22-22-2.23H558v90h19q23.61,0,33.28-10.3t9.68-34.61q0-13.66-2-22.1T611.62,1434.36Z"/><path class="cls-1" d="M728.07,1525.6l-42.6-111.3h12.6l28,74.91q2.83,8.34,5,15t3.82,12.51q2.13-7.46,4.44-14.73c1.54-4.85,3-9.11,4.26-12.78l28-74.91h12.43l-42.78,111.3Z"/><path class="cls-1" d="M917.65,1514.77v10.83h-73V1414.3h71.36v10.47h-60v38.7h53.43v10.12H856.05v41.18Z"/><path class="cls-1" d="M994.15,1484.41v41.19H982.79V1414.3h36.92q22.89,0,33,8t10.11,25.91q0,14.74-6.74,23.44T1035.69,1483l29.81,42.6h-13.66l-28.23-41.19Zm57.16-36.21q0-12.6-7.28-18t-24.32-5.42H994.15v49.53h25.56q16.5,0,24-6.21T1051.31,1448.2Z"/><path class="cls-1" d="M1206.09,1414.3v10.47h-38.87V1525.6h-11.36V1424.77H1117V1414.3Z"/><path class="cls-1" d="M1278.86,1414.3v111.3h-11.35V1414.3Z"/><path class="cls-1" d="M1394.6,1477.32l-28.23-6.75q-11-2.65-15.8-8.88t-4.78-17.39q0-16.5,9.41-24.14t29.81-7.63a131.71,131.71,0,0,1,15.36.8,76.55,76.55,0,0,1,12.34,2.39v10.48a84.88,84.88,0,0,0-13-2.4,134.08,134.08,0,0,0-14.91-.8q-15.28,0-21.48,4.53t-6.21,15.88c0,5,1,8.7,3,11.19s5.32,4.26,9.94,5.32l28.23,6.92q13.67,3.2,18.28,9.14t4.61,18.2q0,17.92-9.22,25.29t-29.47,7.37a151.73,151.73,0,0,1-21-1.42,71.92,71.92,0,0,1-16-3.73v-10.83a124.85,124.85,0,0,0,18.1,4,132.78,132.78,0,0,0,18.82,1.33q14.91,0,21-4.53t6-17.3q0-8-3-11.54T1394.6,1477.32Z"/><path class="cls-1" d="M1497.37,1414.3v111.3H1486V1414.3Z"/><path class="cls-1" d="M1659.25,1414.3v111.3h-12.07l-66.56-93.19v93.19h-10.83V1414.3h12.07l66.56,94.08V1414.3Z"/><path class="cls-1" d="M1804.81,1478.38H1773v-10.12h42.6v51.83q-5,2.31-17.76,4.53a136.79,136.79,0,0,1-23.25,2.22q-27.15,0-37.54-12.78t-10.39-44.2q0-29.29,12.52-43.31t39-14q9.21,0,17.57.44a133.16,133.16,0,0,1,13.84,1.33v10.12q-7.11-.7-15.35-1.07t-16.06-.35q-21.5,0-30.63,10.91t-9.14,35.95a124.15,124.15,0,0,0,1.51,21.21,38.82,38.82,0,0,0,4.7,13.58,21.67,21.67,0,0,0,11.19,9.14q7.28,2.76,20.58,2.75a106.71,106.71,0,0,0,13.85-1.06,142.1,142.1,0,0,0,14.56-2.66Z"/></svg>