<svg xmlns="http://www.w3.org/2000/svg" viewBox="0 0 1343.29 968.74"><defs><style>.cls-1{isolation:isolate;}.cls-2{fill:#181818;}.cls-3{mix-blend-mode:hard-light;}</style></defs><g class="cls-1"><g id="Layer_1" data-name="Layer 1"><path class="cls-2" d="M430.05,37.43v9a134.74,134.74,0,0,1,125.6,183.3L321.28,836.14A134.7,134.7,0,0,1,70,739L304.37,132.61A134.76,134.76,0,0,1,430.05,46.43v-9m0,0A143.76,143.76,0,0,0,296,129.36L61.6,735.77A143.7,143.7,0,1,0,329.67,839.38L564.05,233a143.79,143.79,0,0,0-134-195.54Z"/><path class="cls-2" d="M774.12,37.43v9a134.74,134.74,0,0,1,125.6,183.3L665.35,836.14A134.7,134.7,0,0,1,414.06,739L648.44,132.61A134.76,134.76,0,0,1,774.12,46.43v-9m0,0A143.77,143.77,0,0,0,640,129.36L405.67,735.77A143.7,143.7,0,1,0,673.74,839.38L908.11,233a143.78,143.78,0,0,0-134-195.54Z"/><g class="cls-3"><path class="cls-2" d="M1010.07,81l.13.14C1069,83,1124,106.68,1165,147.87s63.64,95.55,63.64,153a212.07,212.07,0,0,1-25.37,101.07c-29.2,49.76-69.72,84.9-98.58,105.62-31.5,22.62-56.38,33.48-56.63,33.59l6.93,16.61c1-.39,24.12-9.76,55-27,26.81-14.92,64.32-38.59,95.2-68.62a247.53,247.53,0,0,1,54.67,75.64,239.28,239.28,0,0,1,22.5,101.76c0,64.82-25.52,126.16-71.87,172.71s-108.35,73.28-174.72,75.39l-.15.15H763.36a41.86,41.86,0,0,1-35-18.31,46.07,46.07,0,0,1-4.65-42.66C790,654.35,950.86,236.72,952.47,232.53c21.67-56.06,17.2-108.67-11.9-146.76A167.2,167.2,0,0,1,980.38,81h29.69m.42-9H980.38A175.89,175.89,0,0,0,924.61,81c37.87,39,40.35,94.22,19.47,148.25,0,0-161.73,419.84-228.82,594.3-13.52,35.19,10.41,73.2,48.1,73.2h272.72v-.16c141.78-4.51,255.31-117.88,255.31-257.09,0-75.34-33.43-142.87-86.44-189.86-60.35,62.3-153.34,99.7-153.34,99.7s101.21-43.62,159.49-143.07a222.48,222.48,0,0,0,26.52-105.47c0-123.86-101-224.72-227.13-228.73V72Z"/></g></g></g></svg>