<svg id="Layer_1" data-name="Layer 1" xmlns="http://www.w3.org/2000/svg" viewBox="0 0 1343.29 968.74"><defs><style>.cls-1{fill:#368ccc;}.cls-2{fill:#ffdd18;}</style></defs><path class="cls-1" d="M426.49,18.61a149.82,149.82,0,0,0-139.72,95.81L42.54,746.36a149.75,149.75,0,1,0,279.36,108L566.13,222.38A149.84,149.84,0,0,0,426.49,18.61"/><path class="cls-1" d="M785.05,18.61a149.8,149.8,0,0,0-139.71,95.81L401.09,746.36a149.75,149.75,0,1,0,279.36,108L924.69,222.38A149.84,149.84,0,0,0,785.05,18.61"/><path class="cls-2" d="M1031.38,54.6H1000A183.38,183.38,0,0,0,941.89,64c39.46,40.66,42,98.19,20.28,154.5,0,0-168.54,437.51-238.45,619.32-14.1,36.66,10.84,76.29,50.12,76.29h284.21V914c147.75-4.69,266-122.83,266-267.92,0-78.51-34.83-148.88-90.07-197.84-62.9,64.92-159.8,103.9-159.8,103.9S1179.7,506.65,1240.44,403a231.87,231.87,0,0,0,27.63-109.91c0-129.07-105.25-234.18-236.69-238.36V54.6"/></svg>