<svg id="Layer_1" data-name="Layer 1" xmlns="http://www.w3.org/2000/svg" viewBox="0 0 2039.76 462.86"><defs><style>.cls-1{fill:#f37021;}.cls-2{fill:#00c0f3;}.cls-3{fill:#1268b3;}.cls-4{fill:#6d6e71;}</style></defs><title>LogoFull Colors</title><g id="Main_Logo" data-name="Main Logo"><path class="cls-1" d="M1158,50.08a163.34,163.34,0,0,0-29.47,21.22c-27.19-30.53-67.49-49.85-112.47-49.85a151.89,151.89,0,0,0-72.09,18,150.55,150.55,0,0,1,101.8-39C1090.66.43,1130.87,19.67,1158,50.08Z"/><path class="cls-2" d="M1858.77,292.57l26.55-123.87c7.08-32.92,27.85-51,58.49-51,29.9,0,49.21,15.61,49.21,39.76a67.91,67.91,0,0,1-1.86,17.05l-24.47,118.11h46.61l23-107.86c2.39-12.93,3.5-22.15,3.5-29,0-22.77-8-41-24.6-55.76s-39.08-22.24-66.9-22.24c-26.17,0-49.55,7-69.47,20.8-20,14-32.91,36.13-39.48,67.8l-26.25,126.27Z"/><path class="cls-2" d="M1565.65,276.31a103.73,103.73,0,0,1-13.3-20.27H1421c-23.54,0-41.6-7-53.68-20.72-11.06-12.25-16.33-26.89-15.94-44.65h190.51c.27-1.51.51-3,.74-4.63s.39-3.12.59-4.72a129.68,129.68,0,0,0,.75-19.39c-1.85-48.14-35.65-90.69-103.89-90.69-64,0-118.37,41-126,111.22-3.51,32.21,4,58.11,23.06,79.17,18,20.53,45,30.91,80.08,30.91h165A115.3,115.3,0,0,1,1565.65,276.31ZM1436.3,107.74c43.17,0,65.41,25.63,69.07,54.19H1356.3C1366.69,131.36,1396.44,107.74,1436.3,107.74Z"/><path class="cls-2" d="M1653.91,293.12c-26.45,0-46.72-9.47-63.79-29.81-17.94-21.37-24-50.6-17-82.3,13.71-62.25,67.71-104.07,134.36-104.07,33.72,0,61.92,11.48,79.42,32.34,16.48,19.64,22,46.43,15.65,75.44L1778.82,292.5h-42.25l23.6-107.16c4.53-20.55,1.44-38-8.94-50.31-10.16-12.11-26.49-18.51-47.23-18.51-43.14,0-78.15,27.41-87.14,68.2-4.74,21.54-1.15,40.8,10.12,54.24,10.38,12.37,26.15,18.91,45.6,18.91,2,0,4.13-.1,6.4-.3l-7.56,34.33A129.23,129.23,0,0,1,1653.91,293.12Z"/><path class="cls-2" d="M1244.22,108.43c27.08,0,45.93,10.08,57.07,24.64a135,135,0,0,1,22.43-34.91c-17.16-16-42.31-26.23-75.72-26.23-64.66,0-105.27,38.22-131.65,96.14-12.41,27.31-27,53.36-48.24,69.74a57,57,0,0,1-32.06,9.77c-30.94,0-56-24.22-56-54.11s25-54.08,55.94-54.11a96.78,96.78,0,0,0-15-1.16c-42.56,0-78.39,27.71-89.3,65.47a87.25,87.25,0,0,1-9.08-38.79C922.66,99.36,977.6,46,1045.75,46a126.27,126.27,0,0,1,27,2.89,136.37,136.37,0,0,0-56.67-12.32c-73.23,0-132.77,57.6-132.77,128.33,0,70.57,59.42,128.33,132.77,128.33,70,0,108-47.79,136.32-109.85C1169,151.65,1184.35,108.43,1244.22,108.43Z"/><path class="cls-2" d="M1329.54,293.23h-104.4c-35.1,0-62.06-10.38-80.08-30.91l-.51-.58A263.81,263.81,0,0,0,1168,226.26a64.45,64.45,0,0,0,7.24,9.74c12.08,13.77,30.14,20.73,53.68,20.73h70.83a111.06,111.06,0,0,0,16.81,24.14A97.74,97.74,0,0,0,1329.54,293.23Z"/><path class="cls-3" d="M282.91,292.65,341.84,13.48a16.75,16.75,0,0,1,16.55-13h32.35L329.05,292.65Z"/><path class="cls-3" d="M30.59,292.22,74.76,82.66A13.34,13.34,0,0,1,87.92,72.27h37.5l-10.13,49.35h59.84c26.43,0,48.77-21.16,48.77-46.21,0-21.38-16.58-36.32-40.31-36.32H132.35v.07H84l6.07-28.78A13.32,13.32,0,0,1,103.25,0H196.5c21.77,0,39,6,52.63,18.35,13.4,11.72,20.18,27,20.18,45.46,0,14-4.16,27.73-12.36,40.63a67.83,67.83,0,0,1-33.34,27.31l-9.71,3.69,9.9,3.19c24.87,8,39.71,29.67,39.71,58,0,26.41-8.56,48.53-26.2,67.62-17.77,18.82-40.6,28-69.76,28ZM87.2,252.71h73.68c15.44,0,28.41-5.28,39.64-16.13,10.81-10.87,16.26-23.43,16.26-37.39,0-24.68-19.7-41.91-47.89-41.91H107.46Z"/><path class="cls-3" d="M574.26,77.63A13.32,13.32,0,0,0,561.11,88L536.78,201.49c-7.08,32.92-27.86,51-58.49,51-29.89,0-49.21-15.6-49.21-39.76a68,68,0,0,1,1.86-17.05l24.47-118.1H419.75A13.32,13.32,0,0,0,406.6,88l-20.76,97.5c-2.39,12.92-3.5,22.14-3.5,29,0,22.77,8.05,41,24.6,55.76s39.08,22.23,66.9,22.23c26.17,0,49.55-7,69.47-20.8s32.91-36.13,39.48-67.79L609,77.63Z"/><path class="cls-3" d="M866.82,276.31A103.78,103.78,0,0,1,853.51,256H722.16c-23.53,0-41.6-7-53.68-20.72-11.06-12.25-16.33-26.89-15.94-44.65H843.05c.28-1.51.51-3,.74-4.63s.4-3.12.6-4.72a131,131,0,0,0,.74-19.39c-1.84-48.14-35.65-90.69-103.88-90.69-64,0-118.38,41-126,111.22-3.5,32.21,4,58.11,23.06,79.17,18,20.53,45,30.91,80.08,30.91h165A114.73,114.73,0,0,1,866.82,276.31ZM737.47,107.74c43.16,0,65.4,25.63,69.06,54.19H657.46C667.85,131.36,697.6,107.74,737.47,107.74Z"/></g><path class="cls-4" d="M.43,461.09a2,2,0,0,1-.37-1.77L14.9,391.69A3,3,0,0,1,16,389.82a3.18,3.18,0,0,1,2-.73H42.85q12.8,0,20.54,5.87t7.74,16.57a28.67,28.67,0,0,1-.54,5.82q-1.94,9.36-3.65,16.1-2.47,10-6.83,16.16a26.11,26.11,0,0,1-11.56,9.19q-7.2,3-18.06,3H2.1A2,2,0,0,1,.43,461.09ZM31,449.77q8.93,0,13.71-3.85t6.94-12.78q2.14-8,3.44-15.48a26.07,26.07,0,0,0,.64-5.4q0-5.72-3.54-8.41t-11-2.71H28L17.26,449.77Z"/><path class="cls-4" d="M105.27,461.09a2,2,0,0,1-.38-1.77l15-67.73a2.53,2.53,0,0,1,1-1.77,3.18,3.18,0,0,1,2-.73h10.43a2,2,0,0,1,2.05,2.5l-15,67.73a3,3,0,0,1-1.08,1.77,2.89,2.89,0,0,1-1.93.73H107A2.12,2.12,0,0,1,105.27,461.09Z"/><path class="cls-4" d="M185.31,461a3.08,3.08,0,0,1-1-2.13L176,391.79a2.33,2.33,0,0,1,.64-2,2.55,2.55,0,0,1,1.83-.73h9.46a2.93,2.93,0,0,1,2.1.68,2.6,2.6,0,0,1,.81,1.61L197,444.57l29.68-53.19a4,4,0,0,1,3.65-2.29H241a1.76,1.76,0,0,1,1.34.52,1.89,1.89,0,0,1,.49,1.35,2.81,2.81,0,0,1-.33,1.35l-37.63,66.6a5.28,5.28,0,0,1-4.73,2.91H187.89A3.75,3.75,0,0,1,185.31,461Z"/><path class="cls-4" d="M268.91,461.09a2,2,0,0,1-.38-1.77l14.84-67.63a3,3,0,0,1,1.13-1.87,3.16,3.16,0,0,1,2-.73H334a2,2,0,0,1,1.72.73,2.32,2.32,0,0,1,.33,1.87l-1.51,7a2.82,2.82,0,0,1-1.13,1.82,3.27,3.27,0,0,1-2,.67H296.06L292,419.33h33a2,2,0,0,1,1.72.72,2.28,2.28,0,0,1,.32,1.87l-1.39,6.55a2.86,2.86,0,0,1-1.13,1.82,3.44,3.44,0,0,1-2.1.67H289.5l-4.19,18.81h36.23a2,2,0,0,1,1.72.72,2.1,2.1,0,0,1,.32,1.77l-1.5,7.06a2.84,2.84,0,0,1-1.13,1.82,3.28,3.28,0,0,1-2,.68H270.58A2,2,0,0,1,268.91,461.09Z"/><path class="cls-4" d="M428.63,457.09q-7.2-5.76-7.2-16.26a31.53,31.53,0,0,1,.53-6.13q1.29-7.49,4.09-18.49,3.43-13.5,12.53-20.83t23.92-7.33a40.07,40.07,0,0,1,14.89,2.55,22.48,22.48,0,0,1,9.89,7.17,17.18,17.18,0,0,1,3.5,10.65,24.5,24.5,0,0,1-.33,3.84,3.08,3.08,0,0,1-.86,1.56,2.23,2.23,0,0,1-1.61.62H477.44a3,3,0,0,1-2-.57,2.6,2.6,0,0,1-.64-2q.75-11.75-13.23-11.74a19.92,19.92,0,0,0-12.69,4.05q-5.16,4.05-7.31,12.57t-3.87,17.45a34.65,34.65,0,0,0-.54,5.2q0,11.43,12.58,11.43A22.28,22.28,0,0,0,461,448.1q4.74-2.7,7.64-9a6,6,0,0,1,1.5-2,3.33,3.33,0,0,1,2.05-.57h10.53a1.9,1.9,0,0,1,1.51.62,1.69,1.69,0,0,1,.32,1.56,31,31,0,0,1-12,17.56q-9.09,6.65-23.81,6.65Q435.83,462.86,428.63,457.09Z"/><path class="cls-4" d="M522.33,461.09a2,2,0,0,1-.37-1.77l14.83-67.63a3.08,3.08,0,0,1,1.13-1.87,3.18,3.18,0,0,1,2-.73h47.53a2,2,0,0,1,1.72.73,2.36,2.36,0,0,1,.32,1.87l-1.51,7a2.85,2.85,0,0,1-1.12,1.82,3.29,3.29,0,0,1-2,.67H549.48l-4.08,18.19h33a2,2,0,0,1,1.72.72,2.36,2.36,0,0,1,.32,1.87l-1.4,6.55a2.82,2.82,0,0,1-1.13,1.82,3.44,3.44,0,0,1-2.1.67h-32.9l-4.19,18.81H575a2,2,0,0,1,1.72.72,2.14,2.14,0,0,1,.33,1.77l-1.51,7.06a2.8,2.8,0,0,1-1.13,1.82,3.28,3.28,0,0,1-2,.68H524A2,2,0,0,1,522.33,461.09Z"/><path class="cls-4" d="M618.56,461.09a2,2,0,0,1-.37-1.77L633,391.69a3.21,3.21,0,0,1,1.08-1.87,3.07,3.07,0,0,1,2-.73h8.28a2.66,2.66,0,0,1,2.8,1.77L668,437.4l10.11-45.71a3.14,3.14,0,0,1,1.07-1.87,3.07,3.07,0,0,1,2-.73h9.25a2,2,0,0,1,1.72.73,2.28,2.28,0,0,1,.32,1.87l-14.83,67.53a3.18,3.18,0,0,1-1.08,1.87,3,3,0,0,1-2,.73h-8.28a2.78,2.78,0,0,1-1.88-.52,4.81,4.81,0,0,1-1-1.25l-20.76-45.5-9.89,44.77a2.8,2.8,0,0,1-1.13,1.82,3.28,3.28,0,0,1-2,.68h-9.35A2,2,0,0,1,618.56,461.09Z"/><path class="cls-4" d="M740.38,461.09a2,2,0,0,1-.37-1.77l12.69-57.24H732.8a2,2,0,0,1-1.66-.78,2.15,2.15,0,0,1-.38-1.82l1.72-7.79a3.11,3.11,0,0,1,1.08-1.87,3.07,3.07,0,0,1,2-.73h55a2,2,0,0,1,1.72.73,2.28,2.28,0,0,1,.32,1.87L791,399.48a3,3,0,0,1-1.13,1.87,3.1,3.1,0,0,1-2,.73H768.07l-12.69,57.24a2.8,2.8,0,0,1-1.13,1.82,3.27,3.27,0,0,1-2,.68H742.16A2.16,2.16,0,0,1,740.38,461.09Z"/><path class="cls-4" d="M818.23,461.09a2,2,0,0,1-.38-1.77l14.84-67.63a3,3,0,0,1,1.13-1.87,3.16,3.16,0,0,1,2-.73h47.52a2,2,0,0,1,1.72.73,2.28,2.28,0,0,1,.32,1.87l-1.5,7a2.86,2.86,0,0,1-1.13,1.82,3.27,3.27,0,0,1-2,.67H845.38l-4.09,18.19h33a2,2,0,0,1,1.72.72,2.28,2.28,0,0,1,.32,1.87L875,428.47a2.9,2.9,0,0,1-1.13,1.82,3.44,3.44,0,0,1-2.1.67h-32.9l-4.2,18.81h36.24a2,2,0,0,1,1.72.72,2.1,2.1,0,0,1,.32,1.77l-1.5,7.06a2.84,2.84,0,0,1-1.13,1.82,3.3,3.3,0,0,1-2,.68H819.89A2,2,0,0,1,818.23,461.09Z"/><path class="cls-4" d="M915.91,461.09a2.09,2.09,0,0,1-.32-1.77l14.84-67.63a3,3,0,0,1,1.12-1.87,3.31,3.31,0,0,1,2.1-.73H961.5q11.4,0,17.58,4.42t6.18,12.72a26.91,26.91,0,0,1-.64,5.62,25.9,25.9,0,0,1-6.51,12.72,28,28,0,0,1-12.2,7.43l9.78,26.49a3.17,3.17,0,0,1,0,1.15,2.15,2.15,0,0,1-1,1.55,2.88,2.88,0,0,1-1.72.63h-9.89a3.49,3.49,0,0,1-2.58-.78,4.44,4.44,0,0,1-1.07-2L951,434.39H936.23l-5.48,24.93a3,3,0,0,1-1.13,1.77,3.25,3.25,0,0,1-2.1.73h-9.89A2,2,0,0,1,915.91,461.09Zm38-38.54q6.35,0,10.17-2.76a13,13,0,0,0,5-8.05,15.19,15.19,0,0,0,.32-3,7,7,0,0,0-2.69-5.92q-2.68-2.08-8.06-2.08H943.54l-4.73,21.82Z"/><path class="cls-4" d="M1027.35,460.47a21.33,21.33,0,0,1-9.46-6.44,14.21,14.21,0,0,1-3.17-8.94,20.14,20.14,0,0,1,.22-2.39,2.53,2.53,0,0,1,.8-1.5,2.33,2.33,0,0,1,1.67-.68h10a2.83,2.83,0,0,1,1.83.52,4,4,0,0,1,1.07,1.45,8.53,8.53,0,0,0,3.71,5.87q3.29,2.44,9.52,2.45c5,0,9-.82,12.09-2.45s4.86-3.86,5.43-6.7a8.83,8.83,0,0,0,.22-1.56,4.9,4.9,0,0,0-1.78-3.84,16.49,16.49,0,0,0-5.27-2.81q-3.49-1.24-10.16-3.11-10.1-2.38-15-6.6a13.7,13.7,0,0,1-5-11,20.9,20.9,0,0,1,.54-5,22.61,22.61,0,0,1,10.16-14.44q8.12-5.3,21-5.3a33.75,33.75,0,0,1,13.87,2.65,22.67,22.67,0,0,1,9,6.76,13.63,13.63,0,0,1,3.11,8.26,12.57,12.57,0,0,1-.21,1.87,3.08,3.08,0,0,1-.86,1.55,2.22,2.22,0,0,1-1.61.63H1068.7a2.57,2.57,0,0,1-2.8-1.87,6.41,6.41,0,0,0-3-5.51,13.33,13.33,0,0,0-8.06-2.28,20.53,20.53,0,0,0-10,2.18,9.43,9.43,0,0,0-4.95,6.33,12.57,12.57,0,0,0-.21,1.87c0,2.08,1.14,3.78,3.44,5.1s6.3,2.7,12,4.15q11.4,2.6,16.66,6.7a13.18,13.18,0,0,1,5.27,11,28.05,28.05,0,0,1-.53,4.78,23.13,23.13,0,0,1-11,15.43q-8.71,5.25-23,5.25A43.07,43.07,0,0,1,1027.35,460.47Z"/><path class="cls-4" d="M1218.15,461.82l-9.46-13.3a31.05,31.05,0,0,1-2.8,3.84,19.9,19.9,0,0,1-7.79,7.38,23,23,0,0,1-11.24,2.81q-9.67,0-15-4.89t-5.32-13a21.74,21.74,0,0,1,.43-4.47,27.77,27.77,0,0,1,4.57-11.12,24.34,24.34,0,0,1,8.28-7.43,23.27,23.27,0,0,1,10.27-2.85l-1.08-2.08a28.42,28.42,0,0,1-1.83-4.26,14,14,0,0,1-.64-4.37,20.4,20.4,0,0,1,.32-3.32,17.72,17.72,0,0,1,3.93-8.36,22.84,22.84,0,0,1,8.38-6.29,28.29,28.29,0,0,1,11.88-2.39q9.57,0,14,4.16a15,15,0,0,1,4.79,10.7,17.45,17.45,0,0,1,.11,2.28,32,32,0,0,1-.76,6.34H1215a16.55,16.55,0,0,0,.54-3.53,11.22,11.22,0,0,0,.11-1.77,5.73,5.73,0,0,0-1.72-4.46,7.13,7.13,0,0,0-5-1.56,8.12,8.12,0,0,0-8.49,8.2,7.61,7.61,0,0,0,.64,3.12,24.31,24.31,0,0,0,2.15,3.64l30.11,47Zm-16.45-23.27a7.9,7.9,0,0,0-2.85-6.29,10.14,10.14,0,0,0-6.83-2.44,11.75,11.75,0,0,0-11.93,10,15.54,15.54,0,0,0-.22,2.18,7.62,7.62,0,0,0,2.58,6.08,10,10,0,0,0,6.78,2.24,12.49,12.49,0,0,0,8.06-2.76,11.28,11.28,0,0,0,4.19-7.11A11.61,11.61,0,0,0,1201.7,438.55Z"/><path class="cls-4" d="M1328.14,461.09a2.09,2.09,0,0,1-.32-1.77l14.84-67.63a3,3,0,0,1,1.13-1.87,3.26,3.26,0,0,1,2.09-.73h27.85q11.4,0,17.58,4.42t6.18,12.72a26.91,26.91,0,0,1-.64,5.62,25.9,25.9,0,0,1-6.51,12.72,28,28,0,0,1-12.2,7.43l9.78,26.49a3.17,3.17,0,0,1,0,1.15,2.17,2.17,0,0,1-1,1.55,2.93,2.93,0,0,1-1.73.63h-9.89a3.49,3.49,0,0,1-2.58-.78,4.44,4.44,0,0,1-1.07-2l-8.5-24.62h-14.73L1343,459.32a3,3,0,0,1-1.13,1.77,3.25,3.25,0,0,1-2.1.73h-9.89A2,2,0,0,1,1328.14,461.09Zm38-38.54q6.33,0,10.16-2.76a13,13,0,0,0,5-8.05,15.19,15.19,0,0,0,.32-3,7,7,0,0,0-2.69-5.92q-2.69-2.08-8.06-2.08h-15.06L1351,422.55Z"/><path class="cls-4" d="M1428.51,461.09a2,2,0,0,1-.37-1.77L1443,391.69a3.08,3.08,0,0,1,1.13-1.87,3.16,3.16,0,0,1,2-.73h47.53a2,2,0,0,1,1.72.73,2.36,2.36,0,0,1,.32,1.87l-1.51,7a2.82,2.82,0,0,1-1.13,1.82,3.27,3.27,0,0,1-2,.67h-35.37l-4.09,18.19h33a2,2,0,0,1,1.72.72,2.32,2.32,0,0,1,.33,1.87l-1.4,6.55a2.86,2.86,0,0,1-1.13,1.82,3.44,3.44,0,0,1-2.1.67h-32.9l-4.19,18.81h36.23a2,2,0,0,1,1.72.72,2.14,2.14,0,0,1,.33,1.77l-1.51,7.06a2.8,2.8,0,0,1-1.13,1.82,3.28,3.28,0,0,1-2,.68h-48.38A2,2,0,0,1,1428.51,461.09Z"/><path class="cls-4" d="M1535.82,460.47a21.31,21.31,0,0,1-9.47-6.44,14.21,14.21,0,0,1-3.17-8.94,20.14,20.14,0,0,1,.22-2.39,2.53,2.53,0,0,1,.8-1.5,2.34,2.34,0,0,1,1.67-.68h10a2.83,2.83,0,0,1,1.83.52,3.89,3.89,0,0,1,1.07,1.45,8.57,8.57,0,0,0,3.71,5.87q3.29,2.44,9.52,2.45c5,0,9-.82,12.09-2.45s4.86-3.86,5.43-6.7a8,8,0,0,0,.22-1.56,4.92,4.92,0,0,0-1.77-3.84,16.6,16.6,0,0,0-5.27-2.81q-3.5-1.24-10.16-3.11-10.11-2.38-15.06-6.6a13.72,13.72,0,0,1-4.94-11,21.46,21.46,0,0,1,.53-5,22.62,22.62,0,0,1,10.17-14.44q8.12-5.3,21-5.3a33.81,33.81,0,0,1,13.87,2.65,22.7,22.7,0,0,1,9,6.76,13.58,13.58,0,0,1,3.12,8.26,12.91,12.91,0,0,1-.22,1.87,3,3,0,0,1-.86,1.55,2.22,2.22,0,0,1-1.61.63h-10.43a2.57,2.57,0,0,1-2.8-1.87,6.41,6.41,0,0,0-3-5.51,13.33,13.33,0,0,0-8.06-2.28,20.53,20.53,0,0,0-10,2.18,9.46,9.46,0,0,0-5,6.33,12.57,12.57,0,0,0-.21,1.87c0,2.08,1.14,3.78,3.44,5.1s6.31,2.7,12,4.15q11.4,2.6,16.67,6.7a13.19,13.19,0,0,1,5.26,11,27.07,27.07,0,0,1-.53,4.78,23.09,23.09,0,0,1-11,15.43q-8.71,5.25-23,5.25A43,43,0,0,1,1535.82,460.47Z"/><path class="cls-4" d="M1632.58,457.14q-7.47-5.72-7.47-16.62a31.41,31.41,0,0,1,.54-6.13q2.14-11,4-17.77,3.54-14.12,12.69-21.35t23.76-7.22q12.26,0,19.73,5.82t7.47,16.62a32.27,32.27,0,0,1-.64,6.13q-1.41,8.22-3.88,17.77-3.65,14.34-12.74,21.4t-23.7,7.07Q1640.05,462.86,1632.58,457.14Zm33.28-10.49q5.27-4.15,7.42-12.78,2.27-9.35,3.76-16.83a35.28,35.28,0,0,0,.54-5.4q0-11.53-12.36-11.53a19.85,19.85,0,0,0-12.69,4.15q-5.27,4.15-7.42,12.78-2.37,9.45-3.65,16.83a27.53,27.53,0,0,0-.54,5.61q0,5.82,3.12,8.57c2.07,1.84,5.16,2.76,9.24,2.76A19.69,19.69,0,0,0,1665.86,446.65Z"/><path class="cls-4" d="M1728.65,461.09a2.12,2.12,0,0,1-.32-1.77l14.84-67.63a3,3,0,0,1,1.13-1.87,3.3,3.3,0,0,1,2.09-.73h27.85q11.4,0,17.58,4.42t6.18,12.72a26.91,26.91,0,0,1-.64,5.62,25.81,25.81,0,0,1-6.51,12.72,28,28,0,0,1-12.2,7.43l9.79,26.49a3.17,3.17,0,0,1,0,1.15,2.21,2.21,0,0,1-1,1.55,2.92,2.92,0,0,1-1.72.63h-9.89a3.53,3.53,0,0,1-2.59-.78,4.44,4.44,0,0,1-1.07-2l-8.49-24.62H1749l-5.48,24.93a3,3,0,0,1-1.13,1.77,3.25,3.25,0,0,1-2.09.73h-9.9A2,2,0,0,1,1728.65,461.09Zm38-38.54q6.35,0,10.16-2.76a13,13,0,0,0,5-8.05,15.19,15.19,0,0,0,.32-3,7,7,0,0,0-2.69-5.92q-2.69-2.08-8.06-2.08h-15l-4.73,21.82Z"/><path class="cls-4" d="M1844,461.09a2,2,0,0,1-.38-1.77l12.69-57.24h-19.89a2,2,0,0,1-1.67-.78,2.15,2.15,0,0,1-.37-1.82l1.72-7.79a3.14,3.14,0,0,1,1.07-1.87,3.11,3.11,0,0,1,2-.73h55.06a2,2,0,0,1,1.72.73,2.36,2.36,0,0,1,.32,1.87l-1.72,7.79a3.06,3.06,0,0,1-1.13,1.87,3.1,3.1,0,0,1-2,.73h-19.78L1859,459.32a2.84,2.84,0,0,1-1.13,1.82,3.28,3.28,0,0,1-2,.68h-10.11A2.12,2.12,0,0,1,1844,461.09Z"/><path class="cls-4" d="M1932.89,460.47a21.22,21.22,0,0,1-9.46-6.44,14.16,14.16,0,0,1-3.18-8.94,20.14,20.14,0,0,1,.22-2.39,2.5,2.5,0,0,1,.81-1.5,2.3,2.3,0,0,1,1.66-.68h10a2.83,2.83,0,0,1,1.83.52,3.89,3.89,0,0,1,1.07,1.45,8.57,8.57,0,0,0,3.71,5.87q3.29,2.44,9.52,2.45,7.53,0,12.1-2.45t5.43-6.7a8.61,8.61,0,0,0,.21-1.56,4.92,4.92,0,0,0-1.77-3.84,16.6,16.6,0,0,0-5.27-2.81q-3.49-1.24-10.16-3.11-10.11-2.38-15.06-6.6a13.72,13.72,0,0,1-4.94-11,20.9,20.9,0,0,1,.54-5,22.57,22.57,0,0,1,10.16-14.44q8.12-5.3,21-5.3a33.81,33.81,0,0,1,13.87,2.65,22.7,22.7,0,0,1,9,6.76,13.58,13.58,0,0,1,3.12,8.26,11.61,11.61,0,0,1-.22,1.87,3,3,0,0,1-.86,1.55,2.22,2.22,0,0,1-1.61.63h-10.43a2.57,2.57,0,0,1-2.8-1.87,6.41,6.41,0,0,0-3-5.51,13.31,13.31,0,0,0-8.06-2.28,20.53,20.53,0,0,0-10,2.18,9.46,9.46,0,0,0-4.95,6.33,12.57,12.57,0,0,0-.21,1.87q0,3.12,3.44,5.1t12,4.15q11.4,2.6,16.67,6.7a13.2,13.2,0,0,1,5.27,11,27.22,27.22,0,0,1-.54,4.78,23.09,23.09,0,0,1-11,15.43q-8.7,5.25-23,5.25A43,43,0,0,1,1932.89,460.47Z"/></svg>