<svg xmlns="http://www.w3.org/2000/svg" viewBox="0 0 4000 988.13"><defs><style>.cls-1{isolation:isolate;}.cls-2,.cls-3{fill:#fff;}.cls-3{mix-blend-mode:hard-light;}</style></defs><g class="cls-1"><g id="Layer_1" data-name="Layer 1"><path class="cls-2" d="M1449.74,502.06h-31.45V251.49h28.4l2,20.8h1q24.35-14.21,42.86-20a123.68,123.68,0,0,1,37.28-5.83q21.3,0,36.77,6.84a57.57,57.57,0,0,1,24.6,20h1A197.6,197.6,0,0,1,1637.16,253a157.88,157.88,0,0,1,45.39-6.59q36,0,54.53,18.51t18.52,54.53v182.6h-31.45V323q0-24.86-13.19-36.52t-41.09-11.67a121.45,121.45,0,0,0-33.73,5.07,174.12,174.12,0,0,0-35.76,15.22,76,76,0,0,1,2,12.17c.33,4.06.51,8.12.51,12.18v182.6h-31.45V323q0-24.86-13.18-36.52t-41.6-11.67a97.73,97.73,0,0,0-29.92,5.07q-15.74,5.08-37,17.25Z"/><path class="cls-2" d="M1995,461.48v26.89q-13.7,7.1-38.29,12.17a244.49,244.49,0,0,1-49.45,5.07q-57.83,0-82.94-30.69t-25.1-100.17q0-67.46,25.61-97.9t82.93-30.43q52.24,0,75.07,24.34t22.83,79.64c0,5.75-.18,11.33-.51,16.74s-1,11.84-2,19.27H1831.17q.49,48.19,18.77,69.24t62.39,21.05a237.23,237.23,0,0,0,44.13-4.31Q1979.28,468.09,1995,461.48Zm-18.26-115.14q-.51-38.54-16.73-55t-52.25-16.49q-41.6,0-59.09,19.28t-17.5,65.43h144.56c.33-2,.59-4.14.76-6.34S1976.74,348.71,1976.74,346.34Z"/><path class="cls-2" d="M2220.21,164.75h31.45V502.06h-26.88l-2.54-23.84h-2A99.29,99.29,0,0,1,2184,498.76q-21.06,6.86-49.45,6.85-51.75,0-74.31-30.69t-22.58-98.65q0-69.48,27.14-99.67t91.05-30.18a194.13,194.13,0,0,1,35.25,3,132.51,132.51,0,0,1,29.16,8.62Zm-61.37,110.07q-51.74,0-70.76,22.32t-19,79.13q0,55.29,16.49,77.86t59.6,22.57a142.54,142.54,0,0,0,40.32-5.58,115.44,115.44,0,0,0,34.74-16.74V286a128.53,128.53,0,0,0-28.91-8.62A191.78,191.78,0,0,0,2158.84,274.82Z"/><path class="cls-2" d="M2342.45,199.75H2308v-35h34.49Zm-1.52,302.31h-31.45V251.49h31.45Z"/><path class="cls-2" d="M2455.06,505.61q-38.57,0-56.56-18.26t-18-57.82q0-39.57,21.81-56.31t74.06-16.73q18.76,0,36.52,1.52t34.49,4.56V336.2q0-33.48-15.22-47.43t-49.7-13.95a360.09,360.09,0,0,0-40.84,2,283.11,283.11,0,0,0-35.76,6.59V255.55a318.68,318.68,0,0,1,40.84-7.1,445.69,445.69,0,0,1,45.39-2q44.64,0,65.69,21.05t21.05,66.19v168.4h-28.41l-1.52-24.85h-1q-15.74,12.69-41.09,20.54A173.84,173.84,0,0,1,2455.06,505.61Zm24.85-123.26q-38.55,0-54,10.15t-15.47,35q0,26.38,12.68,38t41.09,11.67a160.93,160.93,0,0,0,45.9-6.85q23.07-6.86,37.28-17V388.44q-16.74-3-33.22-4.56T2479.91,382.35Z"/><path class="cls-2" d="M2866.92,409.74q0,48.7-27.39,70.51t-86.73,21.81H2628.53V184H2752.8q53.74,0,76.33,18.26t22.58,62.39q0,29.93-9.13,45.65t-33.48,22.82q28.91,5.09,43.37,24.1T2866.92,409.74ZM2795.41,273.3q0-21.81-9.39-30.18t-33.22-8.37h-63.41v82.17h63.41q22.82,0,32.71-10.14T2795.41,273.3Zm12.67,132.39q0-23.32-12.42-32.47t-42.86-9.13h-63.41v85.22h63.41q30.43,0,42.86-9.64T2808.08,405.69Z"/><path class="cls-2" d="M2976.48,506.63q-42.11,0-62.9-21.05t-20.79-63.15V251.49h58.84V414.82q0,19.28,10.14,27.89t33,8.63a142.46,142.46,0,0,0,28.91-3,160.25,160.25,0,0,0,27.39-8.11V251.49h58.84V502.06h-54.27l-2-17.24h-1.52a230,230,0,0,1-39.82,16.23A127.66,127.66,0,0,1,2976.48,506.63Z"/><path class="cls-2" d="M3286.39,246.42q50.71,0,72,29.67t21.3,98.66q0,70-27.64,100.94t-91,30.94a486.67,486.67,0,0,1-60.61-3.55A319.91,319.91,0,0,1,3150,492.93V164.75h58.84V266.2a167.41,167.41,0,0,1,77.6-19.78Zm34.49,128.33q0-44.13-10.9-59.86t-44.89-15.72a137.36,137.36,0,0,0-29.67,3.3,123.4,123.4,0,0,0-26.63,8.87V447.28a113.85,113.85,0,0,0,20.79,3.55q11.67,1,27.39,1,39.06,0,51.49-15.73T3320.88,374.75Z"/><path class="cls-2" d="M3545.58,246.42q50.72,0,72,29.67t21.31,98.66q0,70-27.65,100.94t-91,30.94a486.83,486.83,0,0,1-60.62-3.55,320,320,0,0,1-50.46-10.15V164.75H3468V266.2a167.49,167.49,0,0,1,77.61-19.78Zm34.49,128.33q0-44.13-10.9-59.86t-44.89-15.72a137.38,137.38,0,0,0-29.68,3.3,123.77,123.77,0,0,0-26.63,8.87V447.28a114.12,114.12,0,0,0,20.8,3.55q11.67,1,27.39,1,39,0,51.48-15.73T3580.07,374.75Z"/><path class="cls-2" d="M3727.67,164.75V502.06h-58.84V164.75Z"/><path class="cls-2" d="M3965.55,440.69v47.68q-12.68,7.61-39.81,12.93a293.28,293.28,0,0,1-56.56,5.33q-59.86,0-86-30.44t-26.12-100.43q0-67.45,27.39-98.4t86.74-30.94q57.32,0,81.15,23.84t23.84,81.66q0,10.65-.5,19.53t-2,24.6H3816.43q.5,31.45,14,44.13t47.93,12.68a326.38,326.38,0,0,0,47.17-3.55Q3949.83,445.77,3965.55,440.69Zm-94.34-143q-30.95,0-42.86,12.17T3816.43,354h106V343.3q-.51-25.87-11.67-35.76T3871.21,297.65Z"/><path class="cls-2" d="M1733.43,807.76H1718.1l56.81-141.35H1790l56.58,141.35h-15.55l-14.43-37.19h-68.53Zm48.7-128.5q-1.82,5.64-4.06,12.4t-7.44,21L1753,757.72h58.62l-17.59-45.09q-3.37-8.79-6.42-17.25T1782.13,679.26Z"/><path class="cls-2" d="M1973.52,807.76H1935V666.41h38.55q21.86,0,34.6,3.5t20.41,11.38q7.44,7.89,10.93,21.31T2043,737q0,36.76-16.45,53.77T1973.52,807.76Zm44-115.87q-5.87-6.54-16-9.36t-28-2.81H1949.4V794h24.12q30,0,42.27-13.08t12.29-44q0-17.34-2.6-28.06T2017.48,691.89Z"/><path class="cls-2" d="M2176.64,807.76l-54.11-141.35h16l35.62,95.14q3.6,10.61,6.42,19.05t4.85,15.89q2.7-9.47,5.64-18.71t5.41-16.23l35.61-95.14h15.79l-54.33,141.35Z"/><path class="cls-2" d="M2428.67,794v13.75H2336V666.41h90.63v13.31h-76.2v49.14h67.85v12.85h-67.85V794Z"/><path class="cls-2" d="M2537.11,755.46v52.3h-14.43V666.41h46.89q29.08,0,41.93,10.15t12.85,32.91q0,18.72-8.56,29.76t-25.93,14.43l37.87,54.1h-17.36l-35.84-52.3Zm72.59-46q0-16-9.24-22.88t-30.89-6.87h-32.46v62.89h32.46q21,0,30.55-7.89T2609.7,709.47Z"/><path class="cls-2" d="M2817.55,666.41v13.31h-49.37v128h-14.43v-128h-49.37V666.41Z"/><path class="cls-2" d="M2921.25,666.41V807.76h-14.43V666.41Z"/><path class="cls-2" d="M3079.5,746.44l-35.84-8.56q-14-3.39-20.07-11.27t-6.08-22.1q0-21,11.95-30.66t37.87-9.69a168.4,168.4,0,0,1,19.5,1,96.25,96.25,0,0,1,15.66,3v13.3a108.24,108.24,0,0,0-16.45-3,171.11,171.11,0,0,0-18.94-1q-19.38,0-27.28,5.75t-7.89,20.18q0,9.47,3.84,14.2t12.62,6.76l35.84,8.79q17.37,4.07,23.22,11.61t5.86,23.11q0,22.77-11.72,32.12t-37.42,9.36a191.61,191.61,0,0,1-26.6-1.8q-12.86-1.8-20.29-4.74V789.05a156.92,156.92,0,0,0,23,5.07,166.6,166.6,0,0,0,23.89,1.69q18.93,0,26.6-5.75t7.67-22q0-10.14-3.84-14.65T3079.5,746.44Z"/><path class="cls-2" d="M3221.3,666.41V807.76h-14.43V666.41Z"/><path class="cls-2" d="M3438.16,666.41V807.76h-15.33l-84.54-118.35V807.76h-13.75V666.41h15.33l84.54,119.49V666.41Z"/><path class="cls-2" d="M3634.29,747.79h-40.36V734.94H3648v65.84q-6.32,2.93-22.55,5.74a173.78,173.78,0,0,1-29.53,2.82q-34.49,0-47.68-16.23T3535.1,737q0-37.19,15.89-55t49.48-17.81q11.73,0,22.32.56a172.25,172.25,0,0,1,17.58,1.69v12.85q-9-.88-19.5-1.35t-20.4-.45q-27.27,0-38.88,13.86T3550,737a156.92,156.92,0,0,0,1.92,26.95q1.92,10.7,6,17.24a27.48,27.48,0,0,0,14.2,11.61q9.24,3.5,26.15,3.5a135.92,135.92,0,0,0,17.58-1.36,178.14,178.14,0,0,0,18.49-3.38Z"/><path class="cls-2" d="M105.72,876.7h0A128.06,128.06,0,0,1,32.44,711.09L241.3,170.68A128.05,128.05,0,0,1,480.19,263L271.33,803.41A128.06,128.06,0,0,1,105.72,876.7Z"/><path class="cls-2" d="M412.34,876.7h0a128.06,128.06,0,0,1-73.28-165.61L547.92,170.68A128.05,128.05,0,0,1,786.81,263L578,803.41A128.06,128.06,0,0,1,412.34,876.7Z"/><path class="cls-3" d="M1063.78,456.13C1010,511.64,927.13,545,927.13,545s90.2-38.87,142.13-127.5a198.22,198.22,0,0,0,23.63-94c0-110.37-90-200.25-202.4-203.83v-.12H863.66A156.77,156.77,0,0,0,814,127.6,128.05,128.05,0,0,1,841.57,263S693.84,635.34,627.4,789.34c-13.31,30.84,9.27,65.22,42.86,65.22h243v-.14c126.35-4,227.52-105,227.52-229.11C1140.81,558.18,1111,498,1063.78,456.13Z"/></g></g></svg>