<?xml version="1.0" encoding="UTF-8"?>
<svg xmlns="http://www.w3.org/2000/svg" viewBox="0 0 400 100">
  <defs>
    <style>
      .logo-blue {
        fill: #358dcc;
      }
      .logo-yellow {
        fill: #ffde11;
      }
      .text-white {
        fill: #ffffff;
        font-family: -apple-system, BlinkMacSystemFont, 'Segoe UI', Roboto, sans-serif;
        font-size: 48px;
        font-weight: 900;
        letter-spacing: -1px;
      }
    </style>
  </defs>

  <!-- Logo Icon -->
  <g transform="translate(0, 5)">
    <path class="logo-blue" d="M7.03,76.05h0c-5.26-2.03-7.87-7.94-5.84-13.2L17.83,19.79c2.03-5.26,7.94-7.87,13.2-5.84,5.26,2.03,7.87,7.94,5.84,13.2h0l-16.64,43.06c-2.03,5.26-7.94,7.87-13.2,5.84Z"/>
    <path class="logo-blue" d="M31.46,76.05h0c-5.26-2.03-7.87-7.94-5.84-13.2L42.26,19.79c2.03-5.26,7.94-7.87,13.2-5.84,5.26,2.03,7.87,7.94,5.84,13.2l-16.64,43.06c-2.03,5.26-7.94,7.87-13.19,5.84,0,0,0,0,0,0Z"/>
    <path class="logo-yellow" d="M83.36,42.54c-4.29,4.42-10.89,7.08-10.89,7.08,0,0,7.19-3.1,11.32-10.16,1.24-2.3,1.88-4.88,1.88-7.49,0-8.79-7.17-15.96-16.13-16.24h0s-2.14,0-2.14,0c-1.34,0-2.68,.22-3.96,.64,2.78,2.86,3.63,7.07,2.2,10.79,0,0-11.77,29.67-17.06,41.94-1.06,2.46,.74,5.2,3.42,5.2h19.36c10.07-.33,18.13-8.38,18.13-18.27,0-5.35-2.37-10.14-6.14-13.48Z"/>
  </g>

  <!-- Text -->
  <text x="120" y="65" class="text-white">mediaBubble</text>
</svg>
