<svg xmlns="http://www.w3.org/2000/svg" viewBox="0 0 3192.2 2539.95"><defs><style>.cls-1{isolation:isolate;}.cls-2{fill:#ffde17;}.cls-2,.cls-3,.cls-6,.cls-9{mix-blend-mode:hard-light;}.cls-3,.cls-5{fill:#005282;}.cls-4,.cls-7,.cls-8{fill:#358ccb;}.cls-6{fill:#50c4dd;}.cls-7{opacity:0.94;}.cls-8{opacity:0.89;}</style></defs><g class="cls-1"><g id="Layer_1" data-name="Layer 1"><path class="cls-2" d="M1049.61,1646.82v-.22H1362.1v693.26H1049.61v-.21c-191-6.07-344-158.83-344-346.42S858.57,1652.89,1049.61,1646.82Z"/><polygon class="cls-3" points="3036.66 1743.14 2998.41 1781.53 3036.66 1819.91 3036.66 1743.14"/><polygon class="cls-3" points="2613.76 1474.44 2728.52 1589.6 2843.28 1474.44 2881.53 1474.44 2728.52 1627.98 2575.51 1474.44 2613.76 1474.44"/><polygon class="cls-3" points="2537.26 1474.44 2728.52 1666.37 2919.79 1474.44 2958.04 1474.44 2728.52 1704.76 2499 1474.44 2537.26 1474.44"/><polygon class="cls-3" points="2460.75 1474.44 2728.52 1743.14 2996.29 1474.44 3034.55 1474.44 2728.52 1781.53 2422.5 1474.44 2460.75 1474.44"/><polygon class="cls-3" points="2613.76 2088.61 2728.52 1973.45 2843.28 2088.61 2881.53 2088.61 2728.52 1935.07 2575.51 2088.61 2613.76 2088.61"/><polygon class="cls-3" points="2537.26 2088.61 2728.52 1896.68 2919.79 2088.61 2958.04 2088.61 2728.52 1858.3 2499 2088.61 2537.26 2088.61"/><polygon class="cls-3" points="2460.75 2088.61 2728.52 1819.91 2996.29 2088.61 3034.55 2088.61 2728.52 1781.53 2422.5 2088.61 2460.75 2088.61"/><polygon class="cls-3" points="2766.77 1781.53 3034.55 1512.83 3034.55 1551.21 2805.03 1781.53 3034.55 2011.84 3034.55 2050.22 2766.77 1781.53"/><polygon class="cls-3" points="3034.55 1589.6 2843.28 1781.53 3034.55 1973.45 3034.55 1935.07 2881.53 1781.53 3034.55 1627.98 3034.55 1589.6"/><polygon class="cls-3" points="3034.55 1666.37 2919.79 1781.53 3034.55 1896.68 3034.55 1858.3 2958.04 1781.53 3034.55 1704.76 3034.55 1666.37"/><polygon class="cls-3" points="2690.27 1781.53 2422.5 1512.83 2422.5 1551.21 2652.01 1781.53 2422.5 2011.84 2422.5 2050.22 2690.27 1781.53"/><polygon class="cls-3" points="2422.5 1589.6 2613.76 1781.53 2422.5 1973.45 2422.5 1935.07 2575.51 1781.53 2422.5 1627.98 2422.5 1589.6"/><polygon class="cls-3" points="2422.5 1666.37 2537.26 1781.53 2422.5 1896.68 2422.5 1858.3 2499 1781.53 2422.5 1704.76 2422.5 1666.37"/><polygon class="cls-3" points="2422.5 1743.14 2460.75 1781.53 2422.5 1819.91 2422.5 1743.14"/><polygon class="cls-3" points="2728.52 2011.84 2652.01 2088.61 2690.27 2088.61 2728.52 2050.22 2766.77 2088.61 2805.03 2088.61 2728.52 2011.84"/><polygon class="cls-3" points="2728.52 1551.21 2805.03 1474.44 2766.77 1474.44 2728.52 1512.83 2690.27 1474.44 2652.01 1474.44 2728.52 1551.21"/><path class="cls-4" d="M987.89,1930.89H207.06V1150.11H987.89Zm-681.78-99H888.84v-582.7H306.11Z"/><rect class="cls-5" x="387.19" y="1330.23" width="420.56" height="420.54"/><path class="cls-6" d="M1424.77,871.07v-.17h-246.7v548.38h246.7v-.17c150.82-4.8,271.58-125.64,271.58-274S1575.59,875.88,1424.77,871.07Z"/><path class="cls-5" d="M1696.35,870.9c-286.24,0-518.28,232-518.28,518.28v518.21c.71,0,1.39.06,2.1.06,285.07,0,516.18-232,516.18-518.27,0,286.23,231.1,518.27,516.18,518.27.7,0,1.39,0,2.09-.06V1389.18C2214.62,1102.94,1982.58,870.9,1696.35,870.9Z"/><path class="cls-4" d="M2492.47,1291.23a320.25,320.25,0,0,1,158.57,47.9c51.12-49.64,82.87-118.17,82.87-194,0-148.38-121-269.21-272.11-274v-.17H2214.62V1291h277.85Z"/><path class="cls-2" d="M2651,1339.13a320.25,320.25,0,0,0-158.57-47.9V1291H2214.62v616.41h277.85v-.19c169.86-5.4,305.86-141.23,305.86-308C2798.33,1489.69,2739.45,1393.78,2651,1339.13Z"/><path class="cls-2" d="M1208.45,443.21v-.27H807.89v888.65h400.56v-.27c244.89-7.79,441-203.6,441-444.06S1453.34,451,1208.45,443.21Z"/><path class="cls-7" d="M2048.28,1706.17c295.23,0,534.56,239.33,534.56,534.56H1513.71C1513.71,1945.5,1753.05,1706.17,2048.28,1706.17Z"/><path class="cls-8" d="M1525.51,618.66h0c-56.71-55.07-91.94-131.1-91.94-215.27,0-164.61,134.23-298.67,301.88-304v-.18h274.23v466.1h0v683.84H1701.43v-.21c-188.44-6-339.33-156.67-339.33-341.71C1362.1,785.69,1427.42,679.29,1525.51,618.66Z"/><g class="cls-9"><path class="cls-2" d="M2067.44,827.09v.07h-93.75v-208h93.75v.07c57.32,1.82,103.21,47.65,103.21,103.92S2124.76,825.27,2067.44,827.09Z"/><path class="cls-2" d="M2067.44,619.11v.06h-93.75v-208h93.75v.06c57.32,1.82,103.21,47.65,103.21,103.93S2124.76,617.29,2067.44,619.11Z"/></g><path class="cls-4" d="M1028.83,674.18c0,122-98.92,221-220.94,221V453.23C929.91,453.23,1028.83,552.15,1028.83,674.18Z"/><path class="cls-4" d="M807.89,674.18c0,122-98.93,221-220.95,221V453.23C709,453.23,807.89,552.15,807.89,674.18Z"/></g></g></svg>