<svg id="Layer_1" data-name="Layer 1" xmlns="http://www.w3.org/2000/svg" viewBox="0 0 2500 2500"><defs><style>.cls-1{fill:#fff;}.cls-2{fill:#368ccc;}.cls-3{fill:#ffdd18;}</style></defs><rect class="cls-1" width="2511.05" height="2511.05"/><path class="cls-2" d="M1044.69,784.24A149.82,149.82,0,0,0,905,880L660.73,1512a149.75,149.75,0,1,0,279.36,108L1184.33,988a149.82,149.82,0,0,0-139.64-203.77"/><path class="cls-2" d="M1403.25,784.24A149.8,149.8,0,0,0,1263.54,880l-244.25,632a149.75,149.75,0,1,0,279.36,108L1542.89,988a149.83,149.83,0,0,0-139.64-203.77"/><path class="cls-3" d="M1649.58,820.23H1618.2a183.49,183.49,0,0,0-58.12,9.44c39.46,40.65,42.05,98.19,20.29,154.5,0,0-168.54,437.51-238.45,619.32-14.1,36.66,10.84,76.29,50.12,76.29h284.21v-.18c147.75-4.7,266-122.83,266-267.92,0-78.51-34.83-148.88-90.08-197.84-62.89,64.92-159.79,103.9-159.79,103.9s105.47-45.46,166.2-149.1a231.77,231.77,0,0,0,27.64-109.92c0-129.06-105.25-234.17-236.69-238.35v-.14"/></svg>